<?xml version="1.0" standalone="no"?>
<!DOCTYPE svg PUBLIC "-//W3C//DTD SVG 20010904//EN"
 "http://www.w3.org/TR/2001/REC-SVG-20010904/DTD/svg10.dtd">
<svg version="1.0" xmlns="http://www.w3.org/2000/svg"
 width="4000.000000pt" height="4000.000000pt" viewBox="0 0 4000.000000 4000.000000"
 preserveAspectRatio="xMidYMid meet">
<metadata>
Created by potrace 1.16, written by Peter Selinger 2001-2019
</metadata>
<g transform="translate(0.000000,4000.000000) scale(0.100000,-0.100000)"
fill="#000000" stroke="none">
<path d="M29120 39894 c-96 -16 -145 -31 -219 -66 -120 -57 -204 -145 -294
-306 -39 -70 -96 -154 -135 -198 -37 -43 -91 -104 -120 -137 -82 -94 -227
-287 -283 -379 -126 -207 -179 -354 -205 -576 -19 -161 -15 -301 21 -737 16
-201 19 -541 5 -620 -30 -165 -87 -328 -308 -885 -296 -745 -426 -1140 -496
-1505 -8 -44 -27 -136 -41 -205 -26 -124 -97 -555 -110 -660 -3 -30 -15 -109
-25 -175 -11 -66 -24 -156 -29 -200 -5 -44 -21 -172 -35 -285 -35 -273 -58
-467 -101 -830 -14 -118 -27 -231 -30 -250 -3 -19 -19 -188 -35 -375 -16 -187
-39 -443 -50 -570 -11 -126 -41 -464 -65 -750 -25 -286 -54 -619 -65 -740 -47
-527 -111 -1310 -125 -1540 -8 -137 -18 -274 -21 -302 l-6 -53 -157 0 c-257
-1 -808 -10 -921 -15 -58 -3 -157 -7 -220 -10 -63 -3 -169 -7 -235 -11 -128
-6 -280 -13 -465 -20 -377 -16 -479 -20 -885 -39 -181 -8 -368 -17 -415 -20
-177 -9 -681 -32 -1125 -50 -325 -13 -475 -23 -620 -40 -114 -13 -206 -22
-472 -45 -167 -15 -305 -29 -399 -40 -44 -6 -100 -10 -123 -10 -24 0 -82 -4
-130 -10 -121 -14 -541 -57 -691 -70 -411 -37 -551 -50 -585 -56 -16 -3 -81
-10 -142 -15 -226 -18 -341 -29 -473 -44 -74 -8 -173 -17 -220 -21 -47 -3
-109 -10 -139 -15 -30 -5 -79 -9 -108 -9 -29 0 -83 -5 -120 -11 -38 -5 -579
-32 -1203 -60 -624 -27 -1434 -63 -1799 -79 -365 -17 -665 -29 -667 -28 -1 2
-5 42 -8 88 -3 47 -10 128 -15 180 -6 52 -13 138 -16 190 -3 52 -9 133 -14
180 -5 47 -9 92 -9 100 0 8 -3 51 -6 95 -4 44 -9 107 -11 140 -4 57 -7 96 -20
240 -3 33 -7 96 -10 140 -3 44 -10 123 -15 175 -5 52 -12 140 -15 195 -3 55
-7 111 -10 125 -3 14 -7 61 -10 105 -3 44 -7 105 -10 135 -4 56 -11 146 -20
280 -3 41 -7 91 -10 110 -3 19 -7 80 -10 135 -3 55 -10 138 -15 185 -5 47 -12
128 -15 180 -3 52 -10 138 -15 190 -5 52 -12 129 -15 170 -2 41 -7 104 -10
140 -3 36 -8 90 -10 120 -2 30 -7 84 -9 120 -5 60 -10 120 -21 275 -3 33 -9
103 -14 155 -6 52 -13 138 -16 190 -3 52 -10 136 -15 185 -5 50 -12 128 -15
175 -3 47 -9 128 -15 180 -5 52 -12 138 -15 190 -3 52 -10 131 -15 175 -5 44
-12 125 -15 180 -3 54 -10 138 -15 185 -5 47 -12 128 -15 180 -3 52 -10 133
-15 180 -5 47 -12 128 -15 180 -3 52 -7 111 -10 130 -2 19 -7 82 -10 140 -3
58 -8 119 -10 135 -3 17 -7 68 -10 115 -9 174 -25 406 -30 430 -4 24 -8 78
-20 300 -3 52 -7 113 -10 135 -2 22 -7 90 -10 150 -3 61 -8 117 -10 125 -2 8
-7 67 -10 130 -3 63 -7 131 -10 150 -2 19 -7 87 -10 150 -4 63 -8 117 -10 120
-2 3 -6 55 -9 115 -3 61 -8 133 -11 160 -3 28 -7 91 -10 140 -3 50 -10 128
-15 175 -5 47 -12 124 -15 173 -3 48 -9 129 -15 180 -5 50 -12 128 -15 172 -3
44 -7 100 -10 125 -2 25 -7 74 -10 110 -3 36 -8 92 -11 125 -8 80 -11 124 -18
220 -4 44 -11 116 -16 160 -5 44 -12 125 -15 180 -3 55 -10 136 -15 180 -5 44
-12 121 -15 170 -3 50 -10 133 -15 185 -6 52 -12 127 -15 165 -7 97 -12 162
-25 290 -11 118 -17 203 -25 359 -3 55 -10 138 -14 185 -5 47 -7 89 -5 93 10
16 -40 193 -66 236 -11 18 -20 37 -20 44 0 6 -17 30 -37 53 -21 23 -45 50 -54
61 -27 31 -101 88 -134 103 -44 19 -425 61 -466 51 -161 -40 -318 -175 -387
-332 -44 -100 -54 -158 -53 -292 1 -70 3 -131 5 -135 2 -3 7 -67 10 -141 10
-192 14 -262 26 -370 5 -52 12 -135 15 -185 3 -49 10 -126 15 -170 5 -44 12
-123 15 -175 3 -52 9 -131 15 -175 5 -44 12 -123 15 -175 3 -52 12 -158 20
-235 8 -77 17 -174 19 -215 3 -41 8 -100 11 -130 2 -30 7 -84 10 -120 11 -118
15 -164 20 -235 3 -38 9 -110 15 -160 5 -49 12 -130 15 -180 3 -49 12 -153 20
-230 8 -77 17 -183 20 -235 3 -52 8 -117 10 -145 2 -27 7 -81 9 -120 3 -38 8
-101 11 -140 3 -38 8 -108 11 -155 3 -47 7 -116 9 -155 3 -38 9 -119 15 -180
5 -60 12 -148 15 -195 11 -199 16 -260 25 -355 9 -96 14 -170 25 -375 3 -52 7
-106 10 -120 2 -14 7 -77 10 -140 4 -63 8 -117 10 -120 2 -3 6 -66 10 -140 8
-143 11 -181 19 -270 10 -102 15 -164 26 -320 6 -85 13 -164 15 -175 3 -11 7
-58 10 -105 7 -115 13 -198 24 -305 5 -49 9 -97 9 -105 -1 -26 12 -184 17
-210 3 -14 7 -65 10 -115 7 -107 12 -168 24 -295 6 -52 13 -138 16 -190 3 -52
10 -135 15 -185 5 -49 12 -133 15 -185 3 -52 10 -131 15 -175 5 -44 12 -129
15 -190 3 -60 8 -117 10 -125 2 -8 7 -53 10 -100 3 -47 7 -110 10 -140 2 -30
7 -97 10 -149 3 -51 9 -132 15 -180 5 -47 12 -131 15 -186 3 -55 10 -138 15
-185 5 -47 12 -128 15 -180 3 -52 7 -115 10 -140 3 -25 8 -79 11 -120 2 -41 6
-91 8 -111 2 -19 7 -87 10 -150 4 -63 11 -150 16 -194 5 -44 12 -123 15 -175
3 -52 10 -140 15 -195 5 -55 12 -136 15 -180 3 -44 7 -105 10 -135 4 -30 8
-82 10 -115 8 -116 15 -200 20 -245 3 -25 7 -88 10 -140 3 -52 12 -153 19
-225 7 -71 11 -138 8 -148 -4 -16 -20 -17 -206 -12 -110 2 -442 7 -736 10
-294 3 -672 8 -840 10 -168 3 -519 7 -780 10 -261 3 -565 7 -675 10 -317 7
-698 15 -980 20 -321 6 -811 16 -1500 32 -176 4 -579 7 -895 6 -574 0 -2338
-14 -2395 -18 -16 -1 -109 -5 -205 -9 -96 -4 -221 -12 -278 -17 -57 -5 -178
-14 -270 -19 -184 -11 -225 -14 -452 -37 -85 -8 -195 -19 -245 -23 -121 -11
-246 -28 -325 -45 -36 -8 -87 -17 -115 -21 -27 -3 -84 -14 -125 -24 -41 -10
-97 -22 -125 -25 -27 -4 -69 -13 -91 -21 -23 -7 -73 -18 -110 -24 -38 -6 -91
-19 -119 -27 -27 -9 -88 -26 -135 -39 -100 -26 -240 -82 -400 -161 -132 -65
-208 -130 -276 -234 -58 -90 -79 -146 -94 -262 -13 -93 -13 -102 10 -190 33
-131 49 -162 125 -254 67 -81 152 -150 210 -171 17 -6 57 -20 90 -33 50 -18
78 -21 174 -20 126 2 154 9 366 99 66 27 136 53 155 57 19 3 44 10 55 15 11 4
56 15 100 25 44 9 96 20 115 25 19 6 73 17 120 25 47 9 101 20 120 25 19 5 67
14 105 20 39 6 93 15 120 20 84 17 216 30 575 59 69 5 145 12 170 16 25 3 128
10 230 15 102 5 201 12 220 15 92 12 544 24 1010 26 1818 7 2607 3 3360 -16
91 -2 293 -7 450 -10 330 -6 669 -13 995 -20 308 -7 800 -14 1310 -20 395 -5
911 -11 1565 -20 157 -2 372 -4 478 -5 l192 -2 1 -31 c1 -18 2 -68 4 -112 3
-94 13 -384 21 -570 3 -71 7 -195 9 -275 2 -80 7 -201 10 -270 3 -69 7 -188
10 -265 2 -77 7 -210 10 -295 3 -85 8 -220 10 -300 2 -80 7 -188 9 -240 3 -52
8 -179 11 -282 3 -103 7 -220 10 -260 2 -40 7 -163 10 -273 3 -110 8 -230 10
-267 3 -37 7 -158 10 -270 3 -112 8 -230 10 -263 2 -33 7 -154 10 -270 4 -115
8 -235 10 -265 2 -30 7 -145 10 -255 3 -110 8 -236 10 -280 3 -44 8 -165 11
-270 3 -104 7 -221 10 -260 10 -125 24 -4086 15 -4245 -2 -36 -12 -145 -22
-243 -10 -98 -21 -219 -24 -270 -3 -51 -10 -105 -14 -122 -5 -16 -9 -39 -9
-50 0 -28 -51 -445 -63 -519 -5 -34 -18 -131 -29 -216 -10 -85 -22 -171 -26
-190 -4 -19 -9 -44 -10 -55 -1 -11 -5 -43 -9 -71 l-7 -51 -267 -9 c-146 -5
-304 -9 -351 -10 -267 -3 -1068 -25 -1260 -34 -124 -6 -425 -15 -670 -21 -750
-17 -660 -13 -1580 -63 -146 -8 -290 -17 -320 -20 -30 -3 -109 -8 -175 -11
-66 -3 -192 -10 -280 -15 -88 -5 -277 -17 -420 -25 -143 -8 -339 -20 -435 -26
-96 -6 -251 -15 -345 -19 -341 -17 -721 -39 -750 -45 -16 -3 -133 -10 -260
-16 -126 -6 -250 -12 -275 -14 -25 -2 -146 -9 -270 -15 -124 -6 -274 -15 -335
-20 -60 -5 -153 -9 -205 -9 -52 -1 -138 -5 -190 -11 -52 -6 -174 -15 -270 -20
-96 -5 -213 -14 -260 -20 -47 -5 -148 -14 -225 -19 -152 -10 -386 -30 -725
-61 -118 -11 -262 -23 -320 -26 -58 -3 -143 -12 -190 -20 -47 -7 -172 -25
-277 -38 -106 -14 -197 -27 -202 -30 -9 -6 -67 -16 -311 -52 -117 -17 -576
-130 -686 -168 -105 -36 -259 -110 -316 -152 -86 -64 -153 -155 -198 -271 -37
-93 -41 -112 -41 -193 0 -197 76 -367 218 -482 116 -95 251 -148 375 -148 79
0 205 26 280 59 26 11 89 31 140 45 51 13 134 36 183 50 50 14 149 35 220 47
72 11 189 31 260 44 72 13 191 31 265 40 74 8 169 22 210 30 41 8 149 19 240
25 91 6 201 15 245 20 44 5 150 14 235 20 85 6 220 17 300 25 80 8 213 20 295
26 83 6 164 13 180 15 17 2 109 8 205 14 96 5 234 14 305 20 72 5 191 12 265
15 74 3 187 10 250 15 122 11 472 29 680 36 69 3 170 9 225 15 55 5 204 14
330 19 127 6 273 15 326 20 53 5 152 10 220 10 68 1 151 6 184 11 33 5 155 14
270 19 330 14 600 30 725 41 63 6 205 14 315 19 230 11 654 35 865 50 80 5
262 12 405 15 143 3 364 10 490 16 127 5 424 14 660 19 237 5 466 12 510 14
44 3 287 10 540 15 253 6 549 13 657 17 l198 6 -5 -29 c-20 -103 -27 -881 -11
-1158 4 -55 8 -138 11 -185 2 -47 7 -125 10 -175 5 -88 9 -157 20 -360 3 -55
8 -129 10 -165 3 -36 7 -110 10 -165 4 -55 8 -125 10 -155 18 -246 22 -599 11
-880 -3 -96 -8 -236 -11 -310 -4 -136 -11 -333 -20 -555 -8 -212 -15 -416 -20
-560 -17 -527 -21 -617 -35 -830 -6 -88 -13 -191 -15 -230 -12 -220 -15 -273
-20 -305 -2 -19 -7 -89 -11 -155 -10 -189 -11 -200 -24 -385 -6 -96 -13 -204
-15 -240 -8 -130 -15 -227 -22 -310 -4 -47 -7 -92 -6 -100 1 -8 -32 -316 -72
-685 -91 -817 -84 -754 -90 -905 -3 -69 -7 -163 -10 -210 -2 -47 -7 -137 -10
-200 -3 -63 -8 -153 -10 -200 -6 -94 -42 -405 -51 -432 -11 -36 -35 -203 -64
-443 -16 -137 -34 -268 -39 -290 -6 -22 -15 -82 -21 -133 -6 -51 -17 -112 -24
-135 -14 -42 -45 -170 -65 -262 -14 -68 -41 -298 -41 -360 -2 -136 40 -258
128 -377 42 -57 139 -139 179 -152 11 -4 27 -13 33 -21 7 -8 19 -15 27 -15 8
0 29 -6 46 -14 84 -36 236 -42 347 -12 166 44 305 152 380 295 60 116 62 122
90 321 20 142 28 180 55 270 37 122 60 267 104 635 17 138 33 261 36 275 3 14
13 68 21 120 8 52 17 106 19 120 2 14 11 72 20 130 9 58 20 130 25 160 5 30
11 105 14 165 7 138 15 288 21 430 3 61 8 162 12 225 3 63 6 126 5 140 0 14
35 345 78 735 44 391 82 757 85 815 4 58 8 134 10 170 2 36 6 94 10 130 6 69
15 205 20 305 1 33 8 139 15 235 6 96 13 200 15 230 10 181 16 270 20 310 3
25 8 86 10 135 3 50 7 131 10 180 3 50 7 126 10 170 3 44 7 161 10 260 3 99 7
232 10 295 4 108 8 207 20 540 3 74 7 200 10 280 3 80 8 213 10 295 3 83 8
218 12 300 13 309 7 889 -12 1155 -3 30 -7 100 -10 155 -5 95 -11 192 -20 350
-3 39 -7 117 -10 175 -3 58 -7 125 -10 150 -3 25 -8 119 -11 210 -4 91 -8 185
-9 210 -2 36 -4 602 -3 735 1 17 5 71 10 120 5 50 9 114 9 143 l0 52 1112 0
c2249 1 4285 12 4612 25 72 3 375 8 675 10 300 3 775 9 1055 14 281 5 667 10
859 11 192 0 352 3 355 4 3 2 245 7 536 10 1027 13 1277 16 1979 31 390 8 711
13 713 11 2 -2 19 -185 38 -407 19 -222 36 -424 39 -449 3 -25 12 -117 21
-205 20 -222 42 -443 54 -550 90 -781 94 -819 121 -1030 11 -88 25 -200 31
-250 15 -128 205 -1242 293 -1720 19 -104 71 -401 115 -660 116 -682 178
-1033 206 -1175 13 -69 40 -206 59 -305 36 -186 89 -455 156 -800 22 -110 51
-258 66 -330 14 -71 34 -175 44 -230 10 -55 45 -235 78 -400 69 -342 97 -502
258 -1460 115 -684 116 -691 169 -835 51 -140 105 -267 233 -546 l60 -131 5
-304 c3 -182 9 -322 16 -349 7 -25 30 -83 53 -129 76 -153 220 -272 388 -317
87 -23 236 -24 314 0 221 66 389 239 440 451 18 73 27 567 14 720 -15 186 -58
326 -171 565 -47 101 -95 207 -182 410 -18 41 -54 236 -145 785 -115 693 -185
1087 -250 1400 -16 77 -39 194 -50 260 -12 66 -30 158 -40 205 -10 47 -37 182
-60 300 -22 118 -56 292 -75 385 -18 94 -54 278 -80 410 -26 132 -58 294 -71
360 -13 66 -51 275 -84 465 -91 532 -165 953 -210 1200 -22 124 -74 421 -115
660 -41 239 -99 579 -130 755 -57 326 -81 479 -109 710 -32 259 -67 558 -86
730 -5 44 -15 141 -24 215 -67 595 -157 1603 -143 1616 6 6 187 10 922 18 248
3 527 8 620 11 94 3 409 8 700 10 700 6 1694 16 2080 20 453 5 1315 5 1655 0
625 -9 1659 -18 2455 -20 579 -2 860 -6 930 -15 55 -7 129 -14 165 -16 125 -6
365 -25 380 -29 8 -3 87 -9 175 -15 88 -5 239 -17 335 -25 642 -54 606 -53
773 -25 78 13 165 20 253 20 156 0 307 15 367 36 23 8 86 21 140 29 54 9 107
20 117 25 10 6 28 10 40 10 12 0 81 30 153 67 114 58 142 77 207 143 117 118
170 244 170 405 0 191 -55 321 -189 446 -83 78 -143 114 -256 155 -73 26 -226
24 -330 -6 -44 -12 -102 -27 -130 -32 -27 -5 -86 -18 -130 -29 -60 -15 -127
-21 -270 -25 -104 -3 -215 -10 -245 -16 -71 -15 -246 -14 -380 1 -58 6 -172
16 -255 21 -82 5 -217 16 -300 24 -82 9 -217 20 -300 26 -82 5 -199 14 -260
20 -464 40 -591 47 -665 37 -54 -7 -1774 -1 -2510 9 -420 5 -2042 5 -2535 0
-286 -4 -716 -8 -955 -11 -239 -2 -739 -7 -1110 -11 -371 -3 -934 -11 -1250
-18 -316 -6 -584 -10 -596 -8 l-21 3 2 1392 c2 1112 5 1464 18 1752 9 198 26
581 37 850 11 270 22 546 25 615 3 69 19 456 35 860 17 404 42 969 55 1255 14
286 30 615 35 730 6 116 17 345 25 510 8 165 28 586 45 935 49 1018 58 1190
90 1660 37 564 66 996 86 1320 8 140 17 264 20 276 l3 20 758 3 c434 1 1229
12 1858 26 605 14 1273 28 1485 31 631 10 2179 10 2560 0 505 -13 513 -13
1055 -3 428 7 503 11 595 29 58 11 124 26 147 34 43 14 183 37 328 55 135 16
376 28 682 34 161 3 359 12 440 21 297 30 328 33 348 38 57 16 264 30 450 31
116 1 275 7 355 13 80 6 226 12 326 12 166 0 186 2 245 24 177 65 261 130 347
264 57 89 75 140 92 262 11 78 10 93 -10 180 -27 115 -55 174 -121 254 -97
116 -171 166 -319 214 -87 28 -256 35 -495 21 -104 -6 -296 -12 -425 -15 -129
-2 -253 -6 -275 -10 -22 -3 -83 -10 -135 -14 -52 -5 -149 -16 -215 -24 -66 -9
-163 -20 -215 -26 -52 -6 -104 -12 -115 -15 -11 -2 -155 -5 -320 -5 -165 0
-338 -5 -385 -10 -47 -5 -155 -14 -240 -20 -85 -6 -182 -15 -215 -20 -33 -6
-89 -14 -125 -19 -122 -18 -285 -49 -310 -60 -55 -24 -1210 -34 -1750 -15
-181 6 -1218 6 -1885 0 -608 -6 -1543 -25 -2540 -51 -49 -1 -497 -6 -994 -9
l-904 -7 7 108 c26 407 49 730 61 863 15 155 28 300 85 970 17 195 39 452 50
570 21 229 33 370 80 920 63 738 58 689 100 1035 5 44 21 177 35 295 42 362
78 647 106 835 10 72 21 155 25 185 3 30 33 217 66 415 68 411 113 625 183
870 24 85 150 442 195 555 398 989 490 1263 536 1585 24 166 22 503 -5 858
-12 154 -21 330 -21 393 0 108 2 117 27 157 51 79 140 192 262 332 166 191
188 219 276 377 99 177 127 255 132 378 9 182 -48 331 -176 460 -84 84 -140
120 -246 155 -68 23 -194 38 -245 29z m-2854 -13576 c3 -3 -2 -109 -10 -234
-9 -126 -20 -299 -26 -384 -33 -476 -91 -1380 -100 -1540 -15 -271 -183 -3782
-195 -4065 -3 -77 -17 -414 -30 -750 -14 -335 -43 -1041 -65 -1568 l-40 -958
0 -1348 0 -1348 -297 -7 c-164 -4 -469 -9 -678 -11 -433 -5 -802 -11 -1530
-25 -280 -5 -636 -10 -790 -11 -154 0 -473 -5 -710 -10 -236 -4 -731 -11
-1100 -14 -368 -4 -672 -8 -675 -10 -3 -2 -262 -6 -575 -9 -314 -4 -757 -8
-985 -11 -658 -7 -4348 -11 -4354 -4 -4 3 1 53 9 110 41 270 153 1183 156
1264 0 22 5 83 10 135 17 177 19 274 18 1000 -1 2074 -10 3404 -24 3635 -1 28
-6 140 -9 250 -4 110 -9 240 -11 290 -3 49 -7 164 -10 255 -3 91 -7 208 -10
260 -2 52 -7 172 -10 265 -3 94 -8 217 -10 275 -3 58 -7 173 -10 255 -3 83 -8
206 -10 275 -3 69 -7 188 -10 265 -13 353 -15 406 -20 505 -4 99 -11 282 -20
590 -2 74 -7 194 -10 265 -3 72 -8 195 -10 275 -2 80 -7 204 -10 275 -3 72 -8
200 -10 285 -2 85 -7 209 -10 275 -2 66 -8 206 -11 310 -4 105 -7 211 -8 238
-2 41 0 47 18 47 12 0 273 11 581 25 308 13 922 41 1365 60 918 40 993 44
1110 50 47 2 148 7 225 10 348 14 541 28 644 46 30 5 85 9 122 9 37 0 79 4 93
9 13 6 60 11 103 12 43 0 98 5 123 10 25 5 81 10 125 13 44 2 143 11 220 20
146 17 248 27 690 66 61 5 121 11 135 14 14 3 79 10 145 15 223 20 649 61 735
70 47 6 146 15 220 21 74 6 155 13 180 16 25 3 90 10 145 14 55 5 143 14 195
20 234 28 540 44 2020 110 498 22 1209 53 1580 70 371 16 711 31 755 32 143 5
655 1 661 -4z"/>
</g>
</svg>
