<?xml version="1.0" standalone="no"?>
<!DOCTYPE svg PUBLIC "-//W3C//DTD SVG 20010904//EN"
 "http://www.w3.org/TR/2001/REC-SVG-20010904/DTD/svg10.dtd">
<svg version="1.0" xmlns="http://www.w3.org/2000/svg"
 width="400.000000pt" height="400.000000pt" viewBox="0 0 400.000000 400.000000"
 preserveAspectRatio="xMidYMid meet">
<metadata>
Created by potrace 1.16, written by Peter Selinger 2001-2019
</metadata>
<g transform="translate(0.000000,400.000000) scale(0.100000,-0.100000)"
fill="#000000" stroke="none">
<path d="M1920 3804 c-197 -41 -235 -51 -410 -115 -304 -110 -364 -138 -472
-219 -236 -175 -375 -345 -491 -600 -73 -162 -78 -177 -131 -388 -58 -229 -73
-352 -82 -652 -5 -214 -4 -269 15 -434 26 -226 38 -286 89 -436 49 -143 69
-183 131 -258 121 -145 416 -346 589 -400 125 -40 159 -47 387 -83 544 -84
784 -87 1015 -9 96 32 375 190 445 252 133 117 337 363 385 465 43 90 164 415
188 503 24 89 67 350 83 505 13 129 6 374 -14 455 -36 143 -214 488 -336 650
-95 126 -249 287 -361 378 -92 74 -342 242 -425 285 -39 20 -82 52 -98 71 -34
44 -67 53 -222 59 -109 5 -135 2 -285 -29z m401 -308 c103 -46 238 -129 385
-237 87 -64 220 -180 237 -207 5 -7 43 -51 85 -98 109 -121 228 -324 328 -554
26 -62 28 -74 32 -250 4 -186 -5 -292 -44 -510 -25 -135 -42 -193 -121 -400
-76 -200 -96 -240 -167 -323 -201 -237 -227 -260 -386 -349 -212 -118 -244
-128 -450 -134 -179 -6 -325 7 -658 60 -235 37 -363 73 -444 123 -190 116
-337 236 -373 304 -23 43 -75 199 -90 271 -30 139 -57 456 -51 583 4 66 9 167
12 225 6 133 29 293 55 390 12 41 29 107 39 146 10 39 41 121 69 182 28 61 51
115 51 120 0 28 167 242 240 307 138 125 217 172 390 233 47 16 132 48 190 70
187 71 441 118 535 99 22 -4 83 -27 136 -51z"/>
</g>
</svg>
