<?xml version="1.0" standalone="no"?>
<!DOCTYPE svg PUBLIC "-//W3C//DTD SVG 20010904//EN"
 "http://www.w3.org/TR/2001/REC-SVG-20010904/DTD/svg10.dtd">
<svg version="1.0" xmlns="http://www.w3.org/2000/svg"
 width="400.000000pt" height="400.000000pt" viewBox="0 0 400.000000 400.000000"
 preserveAspectRatio="xMidYMid meet">
<metadata>
Created by potrace 1.16, written by Peter Selinger 2001-2019
</metadata>
<g transform="translate(0.000000,400.000000) scale(0.100000,-0.100000)"
fill="#000000" stroke="none">
<path d="M667 3746 c-20 -8 -44 -20 -53 -27 -29 -24 -61 -104 -93 -231 -26
-106 -31 -146 -31 -246 0 -250 67 -388 330 -683 8 -9 69 -72 135 -139 158
-162 369 -305 552 -375 l72 -28 -107 -121 c-251 -283 -499 -640 -741 -1065
-49 -86 -115 -201 -146 -256 -85 -148 -88 -155 -88 -200 0 -76 56 -129 136
-129 82 0 82 -1 260 319 141 253 355 600 441 714 39 53 94 128 121 166 96 138
380 455 406 455 5 0 60 -25 122 -56 129 -64 244 -140 337 -220 36 -31 96 -81
133 -111 81 -65 150 -137 243 -253 37 -47 100 -121 139 -165 135 -150 162
-195 227 -375 28 -78 31 -96 32 -220 1 -115 4 -142 23 -182 24 -53 62 -78 120
-78 49 0 82 18 109 57 20 30 22 46 22 174 1 193 -18 277 -108 489 -42 97 -94
173 -198 290 -121 136 -132 149 -179 211 -141 189 -562 534 -765 625 -21 9
-38 20 -38 24 0 9 257 253 430 411 63 57 117 106 120 109 3 3 28 25 55 50 283
254 486 454 593 584 218 265 248 311 236 372 -9 49 -62 100 -112 109 -54 9
-101 -13 -142 -66 -197 -255 -392 -465 -635 -686 -60 -55 -166 -151 -235 -213
-69 -62 -152 -138 -185 -169 -269 -254 -407 -381 -413 -381 -16 0 -211 79
-273 110 -35 18 -115 67 -179 110 -92 62 -139 103 -240 210 -69 73 -130 138
-135 144 -47 50 -140 184 -166 240 -30 65 -32 74 -32 189 0 124 25 259 58 311
43 69 16 163 -57 196 -51 23 -52 23 -101 6z"/>
</g>
</svg>
